<svg id="Capa_1" enable-background="new 0 0 512 512" height="512" viewBox="0 0 512 512" width="512" xmlns="http://www.w3.org/2000/svg"><path d="m200 32c-4.058 0-8.022.395-11.87 1.117-7.906-5.73-17.62-9.117-28.13-9.117-26.51 0-48 21.49-48 48 0 18.941 10.974 35.314 26.908 43.122 8.131 26.005 32.407 44.878 61.092 44.878 35.346 0 64-28.654 64-64s-28.654-64-64-64z" fill="#fff1be"/><circle cx="200" cy="96" fill="#ffcd89" r="48"/><circle cx="288" cy="64" fill="#ffcd89" r="16"/><circle cx="116" cy="140" fill="#fff1be" r="12"/><circle cx="96" cy="40" fill="#fff1be" r="8"/><path d="m291.122 114.908c-7.808-15.934-24.181-26.908-43.122-26.908-8.656 0-16.77 2.303-23.782 6.312-4.271-3.919-9.965-6.312-16.218-6.312-13.255 0-24 10.745-24 24 0 10.462 6.696 19.355 16.034 22.641-.012.452-.034.903-.034 1.359 0 10.51 3.387 20.224 9.117 28.13-.722 3.848-1.117 7.812-1.117 11.87 0 35.346 28.654 64 64 64s64-28.654 64-64c0-28.685-18.873-52.961-44.878-61.092z" fill="#ffa573"/><circle cx="272" cy="176" fill="#ff6e64" r="48"/><circle cx="272" cy="176" fill="#ffcd89" r="24"/><path d="m60.75 450.75h431.5l19.75-10.75v-16.982l-4-11.518 4-5.719v-27.111l-69.541-58.151c-12.07-5.57-22.362-14.374-29.735-25.435l-73.544-110.315c-6.115-9.172-18.609-11.462-27.58-5.055l-20.003 14.288c-12.057 8.612-27.886 9.854-41.138 3.228l-13.879-6.939c-7.513-3.756-16.586-2.284-22.526 3.655l-74.742 74.742c-6.578 6.578-16.884 7.598-24.624 2.438-6.486-4.324-14.924-4.374-21.46-.125l-93.228 89.513v11.457z" fill="#827373"/><path d="m103.926 292.672c16.879 9.648 38.453 6.906 52.355-7.016l72.457-72.453 10.98 5.484c21.25 10.633 46.477 8.664 65.828-5.156l16.234-11.594 70.973 106.461c9.832 14.75 23.539 26.477 39.645 33.906l79.602 36.366v-17.243l-69.541-40.908c-12.07-5.57-22.362-14.374-29.735-25.435l-73.544-110.315c-6.115-9.172-18.609-11.462-27.58-5.055l-20.003 14.288c-12.057 8.612-27.886 9.854-41.138 3.228l-13.879-6.939c-7.513-3.756-16.586-2.284-22.526 3.655l-74.742 74.742c-6.578 6.578-16.884 7.598-24.624 2.438-6.486-4.324-14.924-4.374-21.46-.125l-93.228 70.141v19.371z" fill="#c1706b"/><path d="m156 252 60 60 40-72h48l24 48h80l-68.82-103.231c-6.115-9.172-18.609-11.462-27.58-5.055l-20.003 14.288c-12.057 8.612-27.886 9.854-41.138 3.228l-13.879-6.939c-7.513-3.756-16.586-2.284-22.526 3.655z" fill="#ffa573"/><path d="m408 288-68.82-103.231c-6.115-9.172-18.609-11.462-27.58-5.055l-20.003 14.288c-12.057 8.612-27.886 9.854-41.138 3.228l-13.879-6.939c-7.513-3.756-16.586-2.284-22.526 3.655l-58.054 58.054 16.969 16.969 55.769-55.766 10.98 5.484c21.25 10.633 46.477 8.664 65.828-5.156l16.234-11.594 57.375 86.063z" fill="#ffcd89"/><path d="m512 405.781-128.433-51.374c-1.496-.598-2.775-1.636-3.669-2.977l-36.951-55.43h60.771l2.349 3.523c8.189 12.286 19.62 22.064 33.026 28.252l72.907 33.652v-2.27c0-9.361-5.443-17.868-13.942-21.791l-52.249-24.117c-10.732-4.954-19.884-12.782-26.44-22.617l-73.206-109.815c-3.243-4.864-7.773-8.902-13.257-10.928-8.902-3.289-18.441-2.049-25.952 3.313l-20.001 14.284c-9.646 6.889-22.31 7.883-32.913 2.583l-13.879-6.938c-10.594-5.295-23.387-3.218-31.761 5.156l-74.742 74.742c-3.93 3.93-10.03 4.398-14.673 1.344-9.144-6.016-20.941-6.04-30.112-.086l-77.953 50.67c-6.811 4.427-10.92 11.999-10.92 20.122v6.063l97.594-63.439c3.866-2.493 8.857-2.469 12.698.106 10.883 7.294 25.412 5.799 34.677-3.466l13.39-13.39 18.478 17.313-57.946 68.57c-2.852 3.375-2.43 8.422.945 11.273 1.504 1.273 3.336 1.891 5.16 1.891 2.273 0 4.531-.961 6.113-2.836l57.418-67.944 20.044 18.78-31.544 56.079c-2.168 3.852-.801 8.727 3.051 10.891 3.84 2.18 8.73.797 10.895-3.047l61.341-109.053c4.411-7.842 12.101-13.69 21.043-14.69 10.679-1.193 20.914 3.648 26.769 12.43l66.465 99.703c2.711 4.047 6.527 7.148 11.051 8.961l134.358 53.744zm-198.563-154.047c-8.238-12.359-22.023-19.734-36.875-19.734-15.57 0-29.984 8.43-37.617 22l-22.3 39.645-46.97-44.008 50.036-50.036c3.512-3.508 8.844-4.375 13.293-2.156l13.875 6.937c15.934 7.969 34.855 6.492 49.367-3.875l20.004-14.289c2.563-1.828 5.672-2.531 8.766-1.953 3.098.57 5.762 2.32 7.508 4.938l60.527 90.797h-60.771z" fill="#ff6e64"/><path d="m0 448h440v-.572c-12.535-1.279-24.59-5.632-34.874-13.059l-102.75-74.208c-13.854-10.005-31.982-11.891-47.598-4.95l-17.526 7.789c-18.777 8.346-40.046 9.146-59.398 2.234l-63.282-22.601c-11.898-4.25-24.993-3.636-36.442 1.707l-78.13 62.944z" fill="#827373"/><path d="m440 447.428c-12.535-1.279-24.59-5.632-34.874-13.059l-102.75-74.208c-13.854-10.005-31.982-11.891-47.598-4.95l-17.526 7.789c-18.777 8.346-40.046 9.146-59.398 2.234l-63.282-22.601c-11.898-4.25-24.993-3.636-36.442 1.707l-78.13 45.287v17.657l88.266-41.199c5.773-2.672 12.25-2.977 18.234-.852l63.281 22.602c25.266 9.039 52.684 7.992 77.223-2.906l17.527-7.789c7.781-3.469 16.891-2.5 23.793 2.477l94.681 68.383h56.995z" fill="#b29b96"/><path d="m48 464c0 13.255 10.745 24 24 24h368c13.255 0 24-10.745 24-24z" fill="#ffa573"/><path d="m496 472h-480c-8.837 0-16-7.163-16-16l27-4h465l20 4c0 8.836-7.164 16-16 16z" fill="#ff6e64"/><path d="m442.375 440c-10.813 0-23.581-5.628-32.566-12.117l-102.75-74.203c-16.102-11.633-37.383-13.852-55.531-5.781l-17.52 7.789c-16.988 7.555-35.973 8.266-53.461 2.016l-63.285-22.602c-13.965-4.984-29.059-4.289-42.516 1.984l-74.746 34.884v17.657l81.508-38.042c9.605-4.477 20.395-4.969 30.371-1.422l63.285 22.602c21.367 7.641 44.586 6.758 65.34-2.453l17.523-7.789c12.973-5.766 28.164-4.172 39.664 4.125l101.571 73.352h-174.711c-16.145 0-32.069-3.759-46.51-10.98l-47.507-23.754c-16.262-8.131-35.721-6.376-50.266 4.533l-25.335 19.001c-9.693 7.27-21.483 11.2-33.6 11.2h-21.333v16h512v-16z" fill="#2d2d4b"/><circle cx="280" cy="400" fill="#b29b96" r="8"/><circle cx="296" cy="296" fill="#ff6e64" r="8"/><circle cx="216" cy="264" fill="#ffcd89" r="8"/><circle cx="248" cy="320" fill="#c1706b" r="8"/><circle cx="40" cy="416" fill="#b29b96" r="8"/><circle cx="240" cy="416" fill="#2d2d4b" r="8"/></svg>